<svg width="937" height="229" viewBox="0 0 937 229" fill="none" xmlns="http://www.w3.org/2000/svg">
<path d="M0 6.76194C0 2.14201 5.54121 -0.220668 8.87488 2.97785L73.8879 65.3552C79.0417 70.3 81.9553 77.1333 81.9553 84.2757V221.632C81.9553 227.407 75.0287 230.36 70.8617 226.362L7.26066 165.34C2.62224 160.889 0 154.739 0 148.311V6.76194Z" fill="#7EE30F"/>
<path d="M135.385 0C146.246 0 155.05 8.80462 155.05 19.6657V144.244C155.05 155.105 146.246 163.91 135.385 163.91H81.9557V84.2756C81.9557 77.1333 79.042 70.2999 73.8884 65.3551L8.87516 2.97802C5.5416 -0.220394 0.000361597 2.14171 0 6.76135V6.55522C0 2.93487 2.93487 0 6.55522 0H135.385Z" fill="#73C816"/>
<path d="M936.067 81.4866C936.067 83.7809 935.914 86.0241 935.608 88.2164H871.599C872.568 93.9774 874.862 98.4129 878.482 101.523C882.153 104.582 886.767 106.111 892.324 106.111C896.25 106.111 899.767 105.245 902.877 103.511C906.038 101.778 908.485 99.3816 910.219 96.3226H934.232C931.173 105.551 925.871 112.892 918.325 118.347C910.78 123.751 902.113 126.453 892.324 126.453C884.116 126.453 876.647 124.516 869.917 120.641C863.238 116.716 857.987 111.337 854.163 104.505C850.34 97.6737 848.428 90.1027 848.428 81.7925C848.428 73.4314 850.314 65.8349 854.087 59.0032C857.911 52.1715 863.162 46.8183 869.841 42.9436C876.57 39.0689 884.065 37.1316 892.324 37.1316C900.787 37.1316 908.384 39.1454 915.113 43.1731C921.843 47.1497 927.018 52.5029 930.638 59.2326C934.257 65.9624 936.067 73.3804 936.067 81.4866ZM892.324 56.6325C887.277 56.6325 882.994 58.0345 879.476 60.8386C875.958 63.6427 873.537 67.5683 872.211 72.6156H913.201C911.621 67.4664 909.021 63.5152 905.401 60.7621C901.832 58.0091 897.473 56.6325 892.324 56.6325Z" fill="white"/>
<path d="M821.729 8.98926H844.594V124.083H827.694L825.017 117.047C817.522 123.42 808.677 126.607 798.48 126.607C785.684 126.607 775.079 122.35 766.667 113.835C758.255 105.321 754.049 94.6404 754.049 81.7927C754.049 75.4709 755.17 69.5568 757.414 64.0507C759.657 58.4936 762.716 53.7522 766.591 49.8265C770.516 45.9008 775.232 42.8164 780.738 40.5731C786.244 38.2789 792.158 37.1318 798.48 37.1318C807.096 37.1318 814.846 39.4515 821.729 44.0909V8.98926ZM783.874 98.3876C788.258 102.772 793.764 104.964 800.392 104.964C807.02 104.964 812.501 102.772 816.834 98.3876C821.219 93.9521 823.411 88.4205 823.411 81.7927C823.411 75.165 821.219 69.6588 816.834 65.2743C812.501 60.8388 807.02 58.621 800.392 58.621C793.764 58.621 788.258 60.8133 783.874 65.1978C779.54 69.5823 777.373 75.114 777.373 81.7927C777.373 88.4715 779.54 94.0031 783.874 98.3876Z" fill="white"/>
<path d="M727.346 28.2598V7H750.136V28.2598H727.346ZM727.346 124.082V39.5015H750.212V124.082H727.346Z" fill="white"/>
<path d="M679.383 126.453C667.453 126.453 657.817 122.96 650.476 115.976C643.185 108.991 639.54 99.7886 639.54 88.3685V39.5015H662.406V85.7684C662.406 91.7843 663.91 96.5002 666.918 99.9161C669.926 103.281 674.081 104.963 679.383 104.963C684.685 104.963 688.815 103.255 691.772 99.8396C694.729 96.4238 696.207 91.7334 696.207 85.7684V39.5015H719.073V88.3685C719.073 99.7886 715.453 108.991 708.214 115.976C700.974 122.96 691.364 126.453 679.383 126.453Z" fill="white"/>
<path d="M616.434 39.5023H631.27V114.294C631.27 127.499 627.421 137.899 619.722 145.496C612.024 153.143 601.47 156.967 588.062 156.967C576.591 156.967 567.032 154.214 559.384 148.707C551.737 143.201 546.944 135.605 545.007 125.918H567.72C568.943 129.538 571.442 132.342 575.214 134.33C579.038 136.37 583.193 137.389 587.68 137.389C593.645 137.389 598.666 135.579 602.745 131.96C606.824 128.391 608.863 123.598 608.863 117.582V114.371C601.674 119.418 593.619 121.942 584.697 121.942C576.948 121.942 569.836 120.081 563.361 116.359C556.937 112.637 551.864 107.539 548.142 101.064C544.472 94.5382 542.636 87.3752 542.636 79.5748C542.636 71.8254 544.472 64.7133 548.142 58.2385C551.864 51.7127 556.937 46.5634 563.361 42.7907C569.836 39.018 576.948 37.1316 584.697 37.1316C595.658 37.1316 605.014 40.7259 612.763 47.9145L616.434 39.5023ZM587.374 101.523C593.594 101.523 598.743 99.4581 602.821 95.3285C606.9 91.1479 608.939 85.8967 608.939 79.5748C608.939 73.3039 606.9 68.1291 602.821 64.0505C598.794 59.9209 593.645 57.8561 587.374 57.8561C581.154 57.8561 576.004 59.9209 571.926 64.0505C567.847 68.1291 565.808 73.3039 565.808 79.5748C565.808 85.8967 567.822 91.1479 571.849 95.3285C575.928 99.4581 581.103 101.523 587.374 101.523Z" fill="white"/>
<path d="M523.889 39.5023H538.725V114.294C538.725 127.499 534.876 137.899 527.177 145.496C519.479 153.143 508.925 156.967 495.517 156.967C484.046 156.967 474.487 154.214 466.839 148.707C459.192 143.201 454.399 135.605 452.462 125.918H475.175C476.398 129.538 478.897 132.342 482.669 134.33C486.493 136.37 490.648 137.389 495.135 137.389C501.1 137.389 506.121 135.579 510.2 131.96C514.279 128.391 516.318 123.598 516.318 117.582V114.371C509.129 119.418 501.074 121.942 492.152 121.942C484.403 121.942 477.291 120.081 470.816 116.359C464.392 112.637 459.319 107.539 455.597 101.064C451.927 94.5382 450.091 87.3752 450.091 79.5748C450.091 71.8254 451.927 64.7133 455.597 58.2385C459.319 51.7127 464.392 46.5634 470.816 42.7907C477.291 39.018 484.403 37.1316 492.152 37.1316C503.113 37.1316 512.469 40.7259 520.218 47.9145L523.889 39.5023ZM494.829 101.523C501.049 101.523 506.198 99.4581 510.277 95.3285C514.355 91.1479 516.394 85.8967 516.394 79.5748C516.394 73.3039 514.355 68.1291 510.277 64.0505C506.249 59.9209 501.1 57.8561 494.829 57.8561C488.609 57.8561 483.46 59.9209 479.381 64.0505C475.302 68.1291 473.263 73.3039 473.263 79.5748C473.263 85.8967 475.277 91.1479 479.304 95.3285C483.383 99.4581 488.558 101.523 494.829 101.523Z" fill="white"/>
<path d="M429.048 39.3493H446.178V123.93H428.206L426.218 116.359C418.52 123.089 409.394 126.453 398.84 126.453C390.479 126.453 382.908 124.516 376.128 120.641C369.347 116.767 364.045 111.414 360.221 104.582C356.397 97.6992 354.485 90.0518 354.485 81.6396C354.485 73.2784 356.397 65.7075 360.221 58.9267C364.045 52.095 369.347 46.7673 376.128 42.9436C382.908 39.0689 390.479 37.1316 398.84 37.1316C409.598 37.1316 418.851 40.5729 426.601 47.4556L429.048 39.3493ZM384.157 98.2345C388.542 102.619 394.048 104.811 400.676 104.811C407.304 104.811 412.784 102.619 417.118 98.2345C421.502 93.85 423.695 88.3183 423.695 81.6396C423.695 74.9608 421.502 69.4292 417.118 65.0447C412.784 60.6602 407.304 58.4679 400.676 58.4679C394.048 58.4679 388.542 60.6857 384.157 65.1212C379.824 69.5057 377.657 75.0118 377.657 81.6396C377.657 88.2674 379.824 93.799 384.157 98.2345Z" fill="white"/>
<path d="M320.671 37.5141C330.205 37.5141 337.75 40.6751 343.307 46.997C348.915 53.3188 351.719 61.8839 351.719 72.6923V124.083H328.854V76.516C328.854 70.0922 327.656 65.3253 325.259 62.2153C322.914 59.1054 319.192 57.5504 314.094 57.5504C308.333 57.5504 303.719 59.5387 300.252 63.5154C296.836 67.4411 295.128 72.8198 295.128 79.6514V124.083H272.263V8.98926H295.128V47.3793C302.011 40.8025 310.525 37.5141 320.671 37.5141Z" fill="white"/>
<path d="M232.484 126.453C221.88 126.453 213.315 123.7 206.789 118.194C200.314 112.637 197.051 105.321 197 96.2462H219.254C219.305 99.8659 220.605 102.645 223.154 104.582C225.754 106.519 229.17 107.488 233.402 107.488C236.767 107.488 239.596 106.749 241.89 105.27C244.236 103.792 245.408 101.701 245.408 98.9992C245.408 97.6227 245 96.4246 244.185 95.4049C243.42 94.3853 242.196 93.5441 240.514 92.8813C238.831 92.1675 237.174 91.6322 235.543 91.2753C233.912 90.8675 231.77 90.4341 229.119 89.9753C226.723 89.5674 224.709 89.2105 223.078 88.9046C221.446 88.5478 219.458 88.0379 217.113 87.3752C214.818 86.7124 212.881 85.9986 211.301 85.2339C209.72 84.4182 208.038 83.3475 206.253 82.022C204.52 80.6964 203.118 79.2434 202.047 77.6629C201.028 76.0315 200.161 74.0686 199.447 71.7744C198.784 69.4802 198.453 66.9565 198.453 64.2035C198.453 56.1992 201.588 49.6989 207.859 44.7025C214.13 39.6552 222.338 37.1316 232.484 37.1316C242.681 37.1316 250.863 39.7317 257.032 44.932C263.201 50.0812 266.311 56.8874 266.362 65.3506H244.643C244.592 62.0367 243.445 59.5385 241.202 57.8561C239.01 56.1737 235.9 55.3325 231.872 55.3325C228.354 55.3325 225.576 56.0717 223.537 57.5502C221.548 59.0287 220.554 60.9915 220.554 63.4387C220.554 64.3564 220.707 65.1976 221.013 65.9624C221.37 66.6761 221.956 67.3134 222.772 67.8742C223.639 68.3841 224.429 68.8429 225.143 69.2508C225.907 69.6076 227.029 69.99 228.507 70.3979C230.037 70.7548 231.26 71.0352 232.178 71.2391C233.147 71.392 234.6 71.647 236.537 72.0038C244.745 73.4823 250.659 75.0118 254.279 76.5923C263.405 80.6709 267.968 87.8085 267.968 98.0051C267.968 106.621 264.731 113.529 258.256 118.73C251.781 123.879 243.19 126.453 232.484 126.453Z" fill="white"/>
</svg>
