<svg width="633" height="203" viewBox="0 0 633 203" fill="none" xmlns="http://www.w3.org/2000/svg">
<path d="M0 6.01021C0 1.90396 4.92509 -0.196016 7.88809 2.64686L65.6724 58.0885C70.2531 62.4836 72.8428 68.5571 72.8428 74.9053V196.989C72.8428 202.122 66.6864 204.747 62.9827 201.193L6.45336 146.956C2.33067 143 0 137.534 0 131.821V6.01021Z" fill="#7EE30F"/>
<path d="M120.331 0C129.985 0 137.81 7.82565 137.81 17.4791V128.206C137.81 137.859 129.985 145.685 120.331 145.685H72.8431V74.9051C72.8431 68.557 70.2534 62.4834 65.6728 58.0883L7.88834 2.6469C4.92544 -0.195889 0.000321391 1.90358 0 6.00957V5.82636C0 2.60855 2.60855 0 5.82636 0H120.331Z" fill="#73C816"/>
<path d="M584.434 46.6676V32H600.157V46.6676H584.434ZM584.434 112.777V54.4234H600.209V112.777H584.434Z" fill="#0F172B"/>
<path d="M564.984 54.3177H576.802V112.671H564.403L563.032 107.448C557.72 112.091 551.424 114.413 544.143 114.413C538.375 114.413 533.151 113.076 528.473 110.403C523.795 107.729 520.137 104.036 517.499 99.3227C514.861 94.5742 513.542 89.2981 513.542 83.4945C513.542 77.7259 514.861 72.5026 517.499 67.8245C520.137 63.1112 523.795 59.4355 528.473 56.7975C533.151 54.1242 538.375 52.7876 544.143 52.7876C551.565 52.7876 557.949 55.1619 563.295 59.9103L564.984 54.3177ZM534.013 94.9436C537.038 97.9685 540.837 99.481 545.409 99.481C549.982 99.481 553.763 97.9685 556.753 94.9436C559.778 91.9186 561.29 88.1022 561.29 83.4945C561.29 78.8867 559.778 75.0703 556.753 72.0453C553.763 69.0204 549.982 67.5079 545.409 67.5079C540.837 67.5079 537.038 69.038 534.013 72.0981C531.023 75.1231 529.528 78.9218 529.528 83.4945C529.528 88.0671 531.023 91.8834 534.013 94.9436Z" fill="#0F172B"/>
<path d="M494.514 112.777V95.8933H511.186V112.777H494.514Z" fill="#73C816"/>
<path d="M467.151 53.0515C473.764 53.0515 479.023 55.2674 482.927 59.6993C486.831 64.0961 488.783 70.0053 488.783 77.427V112.777H473.008V79.9595C473.008 71.2364 469.614 66.8748 462.825 66.8748C458.78 66.8748 455.579 68.2466 453.222 70.9901C450.901 73.6985 449.74 77.4094 449.74 82.1227V112.777H433.965V54.4232H444.781L447.841 61.6515C450.092 58.9783 452.888 56.8854 456.23 55.3729C459.607 53.8253 463.247 53.0515 467.151 53.0515Z" fill="#0F172B"/>
<path d="M410.61 46.6676V32H426.333V46.6676H410.61ZM410.61 112.777V54.4234H426.385V112.777H410.61Z" fill="#0F172B"/>
<path d="M393.903 54.4233H409.52L390.421 112.777H377.758L364.515 82.5976L351.589 112.777H338.873L319.563 54.4233H335.602L347.104 89.1927L362.299 54.8454H366.731L382.401 89.2982L393.903 54.4233Z" fill="#0F172B"/>
<path d="M291.987 114.413C283.757 114.413 277.109 112.003 272.044 107.184C267.014 102.365 264.499 96.0164 264.499 88.1375V54.4233H280.274V86.3436C280.274 90.4941 281.312 93.7477 283.387 96.1043C285.463 98.4258 288.329 99.5866 291.987 99.5866C295.645 99.5866 298.495 98.4082 300.535 96.0516C302.575 93.6949 303.595 90.4589 303.595 86.3436V54.4233H319.37V88.1375C319.37 96.0164 316.873 102.365 311.878 107.184C306.883 112.003 300.253 114.413 291.987 114.413Z" fill="#0F172B"/>
<path d="M254.97 98.7423H262.145V112.777H250.96C244.558 112.777 239.493 110.93 235.765 107.237C232.072 103.508 230.225 98.4082 230.225 91.9362V67.0858H219.673V63.7091L242.729 39.1753H245.737V54.4232H261.829V67.0858H246V89.8257C246 92.6748 246.774 94.8732 248.322 96.4209C249.87 97.9685 252.086 98.7423 254.97 98.7423Z" fill="#0F172B"/>
<path d="M198.481 114.413C191.165 114.413 185.256 112.513 180.754 108.714C176.287 104.88 174.036 99.8327 174 93.5718H189.354C189.389 96.0691 190.286 97.9861 192.045 99.3227C193.838 100.659 196.195 101.328 199.115 101.328C201.436 101.328 203.388 100.818 204.971 99.7976C206.589 98.7775 207.398 97.3354 207.398 95.4712C207.398 94.5215 207.117 93.6949 206.554 92.9914C206.026 92.2879 205.182 91.7076 204.021 91.2503C202.861 90.7579 201.717 90.3885 200.592 90.1423C199.466 89.8609 197.989 89.5619 196.16 89.2454C194.507 88.964 193.117 88.7178 191.992 88.5067C190.866 88.2605 189.495 87.9088 187.877 87.4515C186.294 86.9943 184.957 86.5018 183.867 85.9742C182.776 85.4114 181.616 84.6728 180.384 83.7583C179.189 82.8437 178.221 81.8413 177.483 80.7509C176.779 79.6253 176.181 78.2711 175.689 76.6883C175.231 75.1055 175.003 73.3644 175.003 71.465C175.003 65.9427 177.166 61.458 181.492 58.011C185.819 54.5287 191.482 52.7876 198.481 52.7876C205.516 52.7876 211.162 54.5815 215.418 58.1692C219.674 61.7218 221.819 66.4175 221.854 72.2564H206.87C206.835 69.9701 206.044 68.2466 204.496 67.0858C202.984 65.9251 200.838 65.3447 198.059 65.3447C195.632 65.3447 193.715 65.8547 192.308 66.8748C190.937 67.8948 190.251 69.249 190.251 70.9374C190.251 71.5705 190.356 72.1509 190.567 72.6785C190.814 73.1709 191.218 73.6106 191.781 73.9975C192.379 74.3492 192.924 74.6658 193.416 74.9472C193.944 75.1934 194.718 75.4572 195.738 75.7386C196.793 75.9848 197.637 76.1783 198.27 76.319C198.939 76.4245 199.941 76.6004 201.278 76.8466C206.941 77.8666 211.021 78.9218 213.518 80.0122C219.814 82.8261 222.962 87.7505 222.962 94.7853C222.962 100.73 220.729 105.496 216.262 109.083C211.795 112.636 205.868 114.413 198.481 114.413Z" fill="#0F172B"/>
</svg>
